<?xml version="1.0" standalone="no"?>
<!DOCTYPE svg PUBLIC "-//W3C//DTD SVG 20010904//EN"
 "http://www.w3.org/TR/2001/REC-SVG-20010904/DTD/svg10.dtd">
<svg version="1.0" xmlns="http://www.w3.org/2000/svg"
 width="256.000000pt" height="256.000000pt" viewBox="0 0 256.000000 256.000000"
 preserveAspectRatio="xMidYMid meet">

<g transform="translate(0.000000,256.000000) scale(0.100000,-0.100000)"
fill="#000000" stroke="none">
<path d="M1900 1261 c0 -5 -8 -12 -17 -15 -10 -3 7 -3 37 -1 30 3 69 5 85 5
23 0 27 3 15 10 -19 12 -120 13 -120 1z"/>
<path d="M1120 602 c0 -10 27 -42 35 -42 3 0 1 10 -4 22 -8 23 -31 37 -31 20z"/>
<path d="M1168 524 c-4 -5 0 -18 8 -29 15 -20 17 -12 5 19 -4 11 -10 15 -13
10z"/>
<path d="M1200 442 c0 -5 9 -17 20 -27 20 -18 21 -18 12 5 -9 24 -32 40 -32
22z"/>
<path d="M1240 375 c0 -8 4 -15 10 -15 5 0 7 7 4 15 -4 8 -8 15 -10 15 -2 0
-4 -7 -4 -15z"/>
</g>
</svg>
